<mxfile host="app.diagrams.net" agent="Mozilla/5.0 (Windows NT 10.0; Win64; x64) AppleWebKit/537.36 (KHTML, like Gecko) Chrome/138.0.0.0 Safari/537.36" version="28.0.4">
  <diagram name="Page-1" id="-CI-L2eXxgEZeoqaboXp">
    <mxGraphModel dx="1123" dy="673" grid="1" gridSize="10" guides="1" tooltips="1" connect="1" arrows="1" fold="1" page="1" pageScale="1" pageWidth="850" pageHeight="1100" math="0" shadow="0">
      <root>
        <mxCell id="0" />
        <mxCell id="1" parent="0" />
        <mxCell id="Y1G2BeYtlVUQn7QtaV9z-8" value="" style="group" vertex="1" connectable="0" parent="1">
          <mxGeometry x="170" y="60" width="560" height="340" as="geometry" />
        </mxCell>
        <mxCell id="Y1G2BeYtlVUQn7QtaV9z-7" value="" style="rounded=0;whiteSpace=wrap;html=1;" vertex="1" parent="Y1G2BeYtlVUQn7QtaV9z-8">
          <mxGeometry width="350" height="340" as="geometry" />
        </mxCell>
        <mxCell id="Y1G2BeYtlVUQn7QtaV9z-11" style="edgeStyle=orthogonalEdgeStyle;rounded=0;orthogonalLoop=1;jettySize=auto;html=1;exitX=1;exitY=0.25;exitDx=0;exitDy=0;entryX=0;entryY=0.25;entryDx=0;entryDy=0;" edge="1" parent="Y1G2BeYtlVUQn7QtaV9z-8" source="Y1G2BeYtlVUQn7QtaV9z-1" target="Y1G2BeYtlVUQn7QtaV9z-2">
          <mxGeometry relative="1" as="geometry" />
        </mxCell>
        <mxCell id="Y1G2BeYtlVUQn7QtaV9z-1" value="Ethernet Interface" style="rounded=0;whiteSpace=wrap;html=1;" vertex="1" parent="Y1G2BeYtlVUQn7QtaV9z-8">
          <mxGeometry y="140" width="120" height="60" as="geometry" />
        </mxCell>
        <mxCell id="Y1G2BeYtlVUQn7QtaV9z-12" style="edgeStyle=orthogonalEdgeStyle;rounded=0;orthogonalLoop=1;jettySize=auto;html=1;exitX=0;exitY=0.75;exitDx=0;exitDy=0;entryX=1;entryY=0.75;entryDx=0;entryDy=0;" edge="1" parent="Y1G2BeYtlVUQn7QtaV9z-8" source="Y1G2BeYtlVUQn7QtaV9z-2" target="Y1G2BeYtlVUQn7QtaV9z-1">
          <mxGeometry relative="1" as="geometry" />
        </mxCell>
        <mxCell id="Y1G2BeYtlVUQn7QtaV9z-13" style="edgeStyle=orthogonalEdgeStyle;rounded=0;orthogonalLoop=1;jettySize=auto;html=1;exitX=0.5;exitY=0;exitDx=0;exitDy=0;entryX=0.5;entryY=1;entryDx=0;entryDy=0;" edge="1" parent="Y1G2BeYtlVUQn7QtaV9z-8" source="Y1G2BeYtlVUQn7QtaV9z-2" target="Y1G2BeYtlVUQn7QtaV9z-3">
          <mxGeometry relative="1" as="geometry" />
        </mxCell>
        <mxCell id="Y1G2BeYtlVUQn7QtaV9z-2" value="FPGA Signal Processing" style="rounded=0;whiteSpace=wrap;html=1;" vertex="1" parent="Y1G2BeYtlVUQn7QtaV9z-8">
          <mxGeometry x="170" y="140" width="120" height="60" as="geometry" />
        </mxCell>
        <mxCell id="Y1G2BeYtlVUQn7QtaV9z-15" style="edgeStyle=orthogonalEdgeStyle;rounded=0;orthogonalLoop=1;jettySize=auto;html=1;exitX=1;exitY=0.5;exitDx=0;exitDy=0;" edge="1" parent="Y1G2BeYtlVUQn7QtaV9z-8" source="Y1G2BeYtlVUQn7QtaV9z-3" target="Y1G2BeYtlVUQn7QtaV9z-5">
          <mxGeometry relative="1" as="geometry" />
        </mxCell>
        <mxCell id="Y1G2BeYtlVUQn7QtaV9z-3" value="Laser Driver Circuit" style="rounded=0;whiteSpace=wrap;html=1;" vertex="1" parent="Y1G2BeYtlVUQn7QtaV9z-8">
          <mxGeometry x="170" y="40" width="120" height="60" as="geometry" />
        </mxCell>
        <mxCell id="Y1G2BeYtlVUQn7QtaV9z-14" style="edgeStyle=orthogonalEdgeStyle;rounded=0;orthogonalLoop=1;jettySize=auto;html=1;exitX=0.5;exitY=0;exitDx=0;exitDy=0;entryX=0.5;entryY=1;entryDx=0;entryDy=0;" edge="1" parent="Y1G2BeYtlVUQn7QtaV9z-8" source="Y1G2BeYtlVUQn7QtaV9z-4" target="Y1G2BeYtlVUQn7QtaV9z-2">
          <mxGeometry relative="1" as="geometry" />
        </mxCell>
        <mxCell id="Y1G2BeYtlVUQn7QtaV9z-4" value="Transimpedance Amplifier" style="rounded=0;whiteSpace=wrap;html=1;" vertex="1" parent="Y1G2BeYtlVUQn7QtaV9z-8">
          <mxGeometry x="170" y="240" width="120" height="60" as="geometry" />
        </mxCell>
        <mxCell id="Y1G2BeYtlVUQn7QtaV9z-5" value="Laser Diode" style="rounded=0;whiteSpace=wrap;html=1;" vertex="1" parent="Y1G2BeYtlVUQn7QtaV9z-8">
          <mxGeometry x="350" y="32.5" width="70" height="75" as="geometry" />
        </mxCell>
        <mxCell id="Y1G2BeYtlVUQn7QtaV9z-16" style="edgeStyle=orthogonalEdgeStyle;rounded=0;orthogonalLoop=1;jettySize=auto;html=1;exitX=0;exitY=0.5;exitDx=0;exitDy=0;" edge="1" parent="Y1G2BeYtlVUQn7QtaV9z-8" source="Y1G2BeYtlVUQn7QtaV9z-6" target="Y1G2BeYtlVUQn7QtaV9z-4">
          <mxGeometry relative="1" as="geometry" />
        </mxCell>
        <mxCell id="Y1G2BeYtlVUQn7QtaV9z-6" value="Photodiode Array" style="rounded=0;whiteSpace=wrap;html=1;" vertex="1" parent="Y1G2BeYtlVUQn7QtaV9z-8">
          <mxGeometry x="350" y="232.5" width="70" height="75" as="geometry" />
        </mxCell>
        <mxCell id="Y1G2BeYtlVUQn7QtaV9z-44" value="&lt;font style=&quot;font-size: 14px;&quot;&gt;Transceiver 1&lt;/font&gt;" style="text;html=1;align=center;verticalAlign=middle;resizable=0;points=[];autosize=1;strokeColor=none;fillColor=none;" vertex="1" parent="Y1G2BeYtlVUQn7QtaV9z-8">
          <mxGeometry x="120" y="2.5" width="110" height="30" as="geometry" />
        </mxCell>
        <mxCell id="Y1G2BeYtlVUQn7QtaV9z-17" value="" style="shape=mxgraph.arrows2.wedgeArrowDashed2;html=1;bendable=0;startWidth=50;stepSize=15;rounded=0;entryX=1;entryY=0.5;entryDx=0;entryDy=0;" edge="1" parent="1" target="Y1G2BeYtlVUQn7QtaV9z-5">
          <mxGeometry width="100" height="100" relative="1" as="geometry">
            <mxPoint x="731" y="130" as="sourcePoint" />
            <mxPoint x="470" y="200" as="targetPoint" />
          </mxGeometry>
        </mxCell>
        <mxCell id="Y1G2BeYtlVUQn7QtaV9z-18" value="" style="shape=mxgraph.arrows2.wedgeArrowDashed2;html=1;bendable=0;startWidth=50;stepSize=15;rounded=0;exitX=1;exitY=0.5;exitDx=0;exitDy=0;" edge="1" parent="1" source="Y1G2BeYtlVUQn7QtaV9z-6">
          <mxGeometry width="100" height="100" relative="1" as="geometry">
            <mxPoint x="370" y="300" as="sourcePoint" />
            <mxPoint x="730" y="330" as="targetPoint" />
          </mxGeometry>
        </mxCell>
        <mxCell id="Y1G2BeYtlVUQn7QtaV9z-20" value="" style="group;flipV=0;flipH=1;" vertex="1" connectable="0" parent="1">
          <mxGeometry x="600" y="60" width="560" height="340" as="geometry" />
        </mxCell>
        <mxCell id="Y1G2BeYtlVUQn7QtaV9z-21" value="" style="rounded=0;whiteSpace=wrap;html=1;flipV=0;flipH=1;" vertex="1" parent="Y1G2BeYtlVUQn7QtaV9z-20">
          <mxGeometry x="210" width="350" height="340" as="geometry" />
        </mxCell>
        <mxCell id="Y1G2BeYtlVUQn7QtaV9z-38" style="edgeStyle=orthogonalEdgeStyle;rounded=0;orthogonalLoop=1;jettySize=auto;html=1;exitX=0;exitY=0.25;exitDx=0;exitDy=0;entryX=1;entryY=0.25;entryDx=0;entryDy=0;" edge="1" parent="Y1G2BeYtlVUQn7QtaV9z-20" source="Y1G2BeYtlVUQn7QtaV9z-23" target="Y1G2BeYtlVUQn7QtaV9z-26">
          <mxGeometry relative="1" as="geometry" />
        </mxCell>
        <mxCell id="Y1G2BeYtlVUQn7QtaV9z-23" value="Ethernet Interface" style="rounded=0;whiteSpace=wrap;html=1;flipH=1;" vertex="1" parent="Y1G2BeYtlVUQn7QtaV9z-20">
          <mxGeometry x="440" y="140" width="120" height="60" as="geometry" />
        </mxCell>
        <mxCell id="Y1G2BeYtlVUQn7QtaV9z-34" style="edgeStyle=orthogonalEdgeStyle;rounded=0;orthogonalLoop=1;jettySize=auto;html=1;exitX=0.5;exitY=1;exitDx=0;exitDy=0;entryX=0.5;entryY=0;entryDx=0;entryDy=0;" edge="1" parent="Y1G2BeYtlVUQn7QtaV9z-20" source="Y1G2BeYtlVUQn7QtaV9z-26" target="Y1G2BeYtlVUQn7QtaV9z-30">
          <mxGeometry relative="1" as="geometry" />
        </mxCell>
        <mxCell id="Y1G2BeYtlVUQn7QtaV9z-39" style="edgeStyle=orthogonalEdgeStyle;rounded=0;orthogonalLoop=1;jettySize=auto;html=1;exitX=1;exitY=0.75;exitDx=0;exitDy=0;entryX=0;entryY=0.75;entryDx=0;entryDy=0;" edge="1" parent="Y1G2BeYtlVUQn7QtaV9z-20" source="Y1G2BeYtlVUQn7QtaV9z-26" target="Y1G2BeYtlVUQn7QtaV9z-23">
          <mxGeometry relative="1" as="geometry" />
        </mxCell>
        <mxCell id="Y1G2BeYtlVUQn7QtaV9z-26" value="FPGA Signal Processing" style="rounded=0;whiteSpace=wrap;html=1;flipV=0;flipH=1;" vertex="1" parent="Y1G2BeYtlVUQn7QtaV9z-20">
          <mxGeometry x="270" y="140" width="120" height="60" as="geometry" />
        </mxCell>
        <mxCell id="Y1G2BeYtlVUQn7QtaV9z-35" style="edgeStyle=orthogonalEdgeStyle;rounded=0;orthogonalLoop=1;jettySize=auto;html=1;exitX=0.5;exitY=1;exitDx=0;exitDy=0;entryX=0.5;entryY=0;entryDx=0;entryDy=0;" edge="1" parent="Y1G2BeYtlVUQn7QtaV9z-20" source="Y1G2BeYtlVUQn7QtaV9z-28" target="Y1G2BeYtlVUQn7QtaV9z-26">
          <mxGeometry relative="1" as="geometry" />
        </mxCell>
        <mxCell id="Y1G2BeYtlVUQn7QtaV9z-37" style="edgeStyle=orthogonalEdgeStyle;rounded=0;orthogonalLoop=1;jettySize=auto;html=1;exitX=0;exitY=0.5;exitDx=0;exitDy=0;" edge="1" parent="Y1G2BeYtlVUQn7QtaV9z-20" source="Y1G2BeYtlVUQn7QtaV9z-28" target="Y1G2BeYtlVUQn7QtaV9z-31">
          <mxGeometry relative="1" as="geometry" />
        </mxCell>
        <mxCell id="Y1G2BeYtlVUQn7QtaV9z-28" value="Transimpedance Amplifier" style="rounded=0;whiteSpace=wrap;html=1;flipV=0;flipH=1;" vertex="1" parent="Y1G2BeYtlVUQn7QtaV9z-20">
          <mxGeometry x="270" y="40" width="120" height="60" as="geometry" />
        </mxCell>
        <mxCell id="Y1G2BeYtlVUQn7QtaV9z-36" style="edgeStyle=orthogonalEdgeStyle;rounded=0;orthogonalLoop=1;jettySize=auto;html=1;exitX=0;exitY=0.5;exitDx=0;exitDy=0;" edge="1" parent="Y1G2BeYtlVUQn7QtaV9z-20" source="Y1G2BeYtlVUQn7QtaV9z-30" target="Y1G2BeYtlVUQn7QtaV9z-33">
          <mxGeometry relative="1" as="geometry" />
        </mxCell>
        <mxCell id="Y1G2BeYtlVUQn7QtaV9z-30" value="Laser Driver Circuit" style="rounded=0;whiteSpace=wrap;html=1;flipV=0;flipH=1;" vertex="1" parent="Y1G2BeYtlVUQn7QtaV9z-20">
          <mxGeometry x="270" y="240" width="120" height="60" as="geometry" />
        </mxCell>
        <mxCell id="Y1G2BeYtlVUQn7QtaV9z-31" value="Photodiode Array" style="rounded=0;whiteSpace=wrap;html=1;flipV=0;flipH=1;" vertex="1" parent="Y1G2BeYtlVUQn7QtaV9z-20">
          <mxGeometry x="140" y="32.5" width="70" height="75" as="geometry" />
        </mxCell>
        <mxCell id="Y1G2BeYtlVUQn7QtaV9z-33" value="Laser Diode" style="rounded=0;whiteSpace=wrap;html=1;flipV=0;flipH=1;" vertex="1" parent="Y1G2BeYtlVUQn7QtaV9z-20">
          <mxGeometry x="140" y="232.5" width="70" height="75" as="geometry" />
        </mxCell>
        <mxCell id="Y1G2BeYtlVUQn7QtaV9z-45" value="&lt;font style=&quot;font-size: 14px;&quot;&gt;Transceiver 2&lt;/font&gt;" style="text;html=1;align=center;verticalAlign=middle;resizable=0;points=[];autosize=1;strokeColor=none;fillColor=none;" vertex="1" parent="Y1G2BeYtlVUQn7QtaV9z-20">
          <mxGeometry x="330" y="2.5" width="110" height="30" as="geometry" />
        </mxCell>
        <mxCell id="Y1G2BeYtlVUQn7QtaV9z-46" value="Free Space Optical Link" style="text;html=1;align=center;verticalAlign=middle;resizable=0;points=[];autosize=1;strokeColor=none;fillColor=none;" vertex="1" parent="Y1G2BeYtlVUQn7QtaV9z-20">
          <mxGeometry x="-10" y="155" width="150" height="30" as="geometry" />
        </mxCell>
        <mxCell id="Y1G2BeYtlVUQn7QtaV9z-40" value="Ethernet Router" style="rounded=0;whiteSpace=wrap;html=1;" vertex="1" parent="1">
          <mxGeometry y="200" width="120" height="60" as="geometry" />
        </mxCell>
        <mxCell id="Y1G2BeYtlVUQn7QtaV9z-41" value="Ethernet-Enabled Device" style="rounded=0;whiteSpace=wrap;html=1;" vertex="1" parent="1">
          <mxGeometry x="1210" y="200" width="120" height="60" as="geometry" />
        </mxCell>
        <mxCell id="Y1G2BeYtlVUQn7QtaV9z-42" value="" style="endArrow=classic;startArrow=classic;html=1;rounded=0;entryX=0;entryY=0.5;entryDx=0;entryDy=0;exitX=1;exitY=0.5;exitDx=0;exitDy=0;" edge="1" parent="1" source="Y1G2BeYtlVUQn7QtaV9z-23" target="Y1G2BeYtlVUQn7QtaV9z-41">
          <mxGeometry width="50" height="50" relative="1" as="geometry">
            <mxPoint x="1100" y="340" as="sourcePoint" />
            <mxPoint x="1150" y="290" as="targetPoint" />
          </mxGeometry>
        </mxCell>
        <mxCell id="Y1G2BeYtlVUQn7QtaV9z-43" value="" style="endArrow=classic;startArrow=classic;html=1;rounded=0;entryX=0;entryY=0.5;entryDx=0;entryDy=0;exitX=1;exitY=0.5;exitDx=0;exitDy=0;" edge="1" parent="1" source="Y1G2BeYtlVUQn7QtaV9z-40" target="Y1G2BeYtlVUQn7QtaV9z-1">
          <mxGeometry width="50" height="50" relative="1" as="geometry">
            <mxPoint x="180" y="340" as="sourcePoint" />
            <mxPoint x="230" y="290" as="targetPoint" />
          </mxGeometry>
        </mxCell>
        <mxCell id="Y1G2BeYtlVUQn7QtaV9z-47" value="" style="endArrow=classic;html=1;rounded=0;exitX=1.009;exitY=0.495;exitDx=0;exitDy=0;exitPerimeter=0;" edge="1" parent="1" source="Y1G2BeYtlVUQn7QtaV9z-46">
          <mxGeometry width="50" height="50" relative="1" as="geometry">
            <mxPoint x="670" y="300" as="sourcePoint" />
            <mxPoint x="770" y="230" as="targetPoint" />
          </mxGeometry>
        </mxCell>
        <mxCell id="Y1G2BeYtlVUQn7QtaV9z-48" value="" style="endArrow=classic;html=1;rounded=0;exitX=-0.02;exitY=0.543;exitDx=0;exitDy=0;exitPerimeter=0;" edge="1" parent="1" source="Y1G2BeYtlVUQn7QtaV9z-46">
          <mxGeometry width="50" height="50" relative="1" as="geometry">
            <mxPoint x="710" y="270" as="sourcePoint" />
            <mxPoint x="560" y="231" as="targetPoint" />
          </mxGeometry>
        </mxCell>
      </root>
    </mxGraphModel>
  </diagram>
</mxfile>
